<?xml version="1.0" encoding="utf-8"?>
<!-- Generator: Adobe Illustrator 27.5.0, SVG Export Plug-In . SVG Version: 6.00 Build 0)  -->
<svg version="1.1" id="Layer_1" xmlns="http://www.w3.org/2000/svg" xmlns:xlink="http://www.w3.org/1999/xlink" x="0px" y="0px"
	 viewBox="0 0 1920 1080" style="enable-background:new 0 0 1920 1080;" xml:space="preserve">
<style type="text/css">
	.st0{fill:none;stroke:#74B3D6;stroke-width:11;stroke-miterlimit:10;}
	.st1{fill:#327296;}
	.st2{fill:none;}
	.st3{display:none;fill:#CCCCCC;}
	.st4{font-family:'AnisetteStdPetite-Regular';}
	.st5{font-size:299px;}
	.st6{fill:#FFFFFF;}
	.st7{fill:none;stroke:#FFFFFF;stroke-width:10;stroke-miterlimit:10;}
	.st8{fill:#2EABFF;}
	.st9{fill:#B0C3CC;}
	.st10{fill:#FFFFFF;stroke:#000000;stroke-width:2;stroke-miterlimit:10;}
	.st11{fill:#2EABFF;stroke:#000000;stroke-width:2;stroke-miterlimit:10;}
	.st12{fill:none;stroke:#000000;stroke-width:2;stroke-miterlimit:10;}
	.st13{fill:#596063;}
	.st14{fill:none;stroke:#83B2C6;stroke-width:15;stroke-miterlimit:10;}
	.st15{fill:#FFFFFF;stroke:#FFFFFF;stroke-width:22;stroke-miterlimit:10;}
	.st16{fill:none;stroke:#83B2C6;stroke-width:17;stroke-miterlimit:10;}
	.st17{fill:#FFFFFF;stroke:#FFFFFF;stroke-width:12;stroke-miterlimit:10;}
</style>
<path class="st1" d="M1030.75,761.6H155.62c-53.53,0-96.93-43.4-96.93-96.93V426.2c0-53.53,43.4-96.93,96.93-96.93h875.13
	c53.53,0,96.93,43.4,96.93,96.93v238.47C1127.68,718.21,1084.28,761.6,1030.75,761.6z"/>
<rect x="337.41" y="380.81" class="st2" width="1484.42" height="675.57"/>
<text transform="matrix(1 0 0 1 337.4102 582.3386)" class="st3 st4 st5">MODNet</text>
<path class="st6" d="M299.32,821.99L299.32,821.99c-12.21,0-22.11-9.9-22.11-22.11V440.51c0-12.21,9.9-22.11,22.11-22.11h0
	c12.21,0,22.11,9.9,22.11,22.11v359.38C321.43,812.1,311.53,821.99,299.32,821.99z"/>
<path class="st1" d="M1181.7,655.73L1181.7,655.73c-12.21,0-22.11-9.9-22.11-22.11V448.49c0-12.21,9.9-22.11,22.11-22.11h0
	c12.21,0,22.11,9.9,22.11,22.11v185.12C1203.81,645.83,1193.91,655.73,1181.7,655.73z"/>
<path class="st1" d="M1350.66,654L1350.66,654c-12.21,0-22.11-9.9-22.11-22.11V271.73c0-12.21,9.9-22.11,22.11-22.11h0
	c12.21,0,22.11,9.9,22.11,22.11v360.16C1372.77,644.1,1362.88,654,1350.66,654z"/>
<path class="st1" d="M1665.05,592.6L1665.05,592.6c-12.21,0-22.11-9.9-22.11-22.11V427.17c0-12.21,9.9-22.11,22.11-22.11h0
	c12.21,0,22.11,9.9,22.11,22.11v143.32C1687.16,582.7,1677.26,592.6,1665.05,592.6z"/>
<path class="st1" d="M1747.99,486.54L1747.99,486.54c0,12.21-9.9,22.11-22.11,22.11h-112.96c-12.21,0-22.11-9.9-22.11-22.11v0
	c0-12.21,9.9-22.11,22.11-22.11h112.96C1738.09,464.43,1747.99,474.33,1747.99,486.54z"/>
<path class="st1" d="M1869.65,631.64L1869.65,631.64c0,11.96-9.7,21.66-21.66,21.66h-114.57c-11.96,0-21.66-9.7-21.66-21.66v0
	c0-11.96,9.7-21.66,21.66-21.66h114.57C1859.95,609.98,1869.65,619.68,1869.65,631.64z"/>
<path class="st1" d="M1585.12,557.11v8.18c0,11.79-9.56,21.34-21.34,21.34h-131.32c-2.49,0-4.52-2.02-4.52-4.52v-25
	c0-2.49,2.02-4.52,4.52-4.52h148.14C1583.1,552.6,1585.12,554.62,1585.12,557.11z"/>
<path class="st1" d="M1366.34,643.08l-6.32,5.78c-7.26,6.65-18.54,6.15-25.19-1.11l-170-185.65c-6.65-7.26-6.15-18.54,1.11-25.19
	l6.32-5.78c7.26-6.65,18.54-6.15,25.19,1.11l170,185.65C1374.1,625.16,1373.6,636.43,1366.34,643.08z"/>
<path class="st6" d="M423.24,654.83L423.24,654.83c-10.58,6.11-24.1,2.48-30.2-8.09L280.61,452.01c-6.11-10.58-2.48-24.1,8.09-30.2
	l0,0c10.58-6.11,24.1-2.48,30.2,8.09l112.43,194.73C437.44,635.2,433.82,648.73,423.24,654.83z"/>
<path class="st6" d="M401.11,654.65L401.11,654.65c-10.58-6.11-14.2-19.63-8.09-30.2l112.21-194.36c6.11-10.58,19.63-14.2,30.2-8.09
	l0,0c10.58,6.11,14.2,19.63,8.09,30.2L431.31,646.55C425.2,657.13,411.68,660.75,401.11,654.65z"/>
<path class="st6" d="M524.78,655.16L524.78,655.16c-12.21,0-22.11-9.9-22.11-22.11V440.51c0-12.21,9.9-22.11,22.11-22.11h0
	c12.21,0,22.11,9.9,22.11,22.11v192.55C546.89,645.26,536.99,655.16,524.78,655.16z"/>
<path class="st6" d="M716.31,413.95c-66.63,0-120.64,54.01-120.64,120.64s54.01,120.64,120.64,120.64s120.64-54.01,120.64-120.64
	S782.94,413.95,716.31,413.95z M716.31,607.45c-40.85,0-73.97-33.12-73.97-73.97s33.12-73.97,73.97-73.97s73.97,33.12,73.97,73.97
	S757.17,607.45,716.31,607.45z"/>
<path class="st6" d="M947.1,411.01h-17.39c-13.47,0-24.38,10.92-24.38,24.38v193.87c0,13.37,10.84,24.21,24.21,24.21h17.56
	c71.83-5.72,128.09-57.81,128.09-121.23S1018.93,416.73,947.1,411.01z M952.47,612.91L952.47,612.91l-0.02,0c-0.01,0-0.03,0-0.04,0
	c-2.05,0.14-3.78-1.52-3.78-3.58V457.22c0-1.98,1.6-3.58,3.58-3.58c0.1,0,0.2-0.01,0.3-0.01c6.06,0.35,33.25,2.57,54.9,25.3
	c2.89,3.03,22.49,25.02,22.49,54.46C1029.9,575.49,995.75,609.97,952.47,612.91z"/>
<path class="st1" d="M1492.93,616.75c-21.67-4.88-37.59-24.96-35.97-48.45c1.57-22.83,20.07-41.33,42.9-42.9
	c27.06-1.87,49.58,19.53,49.58,46.19h21.49c9.01,0,15.72-8.29,13.89-17.11c-8.15-39.1-43.67-68.16-85.61-66.23
	c-42.74,1.97-77.43,36.66-79.4,79.4c-1.97,42.8,28.33,78.92,68.64,86.08c7.66,1.36,14.69-4.54,14.69-12.32v-11.84
	C1503.14,623.43,1498.91,618.1,1492.93,616.75z"/>
<path class="st1" d="M1728.72,609.99c-21.24-1.78-38.41-17.71-41.97-38.27h-43.81c3.91,44.48,40.51,79.64,85.78,81.59V609.99z"/>
<circle class="st6" cx="245.27" cy="376.55" r="26.12"/>
<circle class="st6" cx="200.96" cy="706.27" r="26.12"/>
<circle class="st6" cx="149.39" cy="565.82" r="54.37"/>
<line class="st7" x1="245.27" y1="376.55" x2="149.39" y2="565.82"/>
<line class="st7" x1="149.39" y1="565.82" x2="200.02" y2="703.7"/>
<circle class="st1" cx="1544.08" cy="621.98" r="19.03"/>
<path class="st1" d="M1533.04,606.41c-8.1,6.89-18.58,11.07-30.04,11.07c-26.08,0-47.14-21.51-46.41-47.75
	c0.67-24.06,20.11-43.91,44.15-45.06c22.49-1.07,41.67,13.87,47.13,34.4l36.99-2.22c-7.41-39.76-42.98-69.62-85.25-68.02
	c-43.01,1.63-78.1,36.36-80.13,79.36c-2.27,47.94,35.93,87.52,83.38,87.52c21.06,0,40.29-7.81,54.97-20.69L1533.04,606.41z"/>
</svg>
